<?xml version="1.0" encoding="UTF-8"?>
<svg version="1.1" xmlns="http://www.w3.org/2000/svg" width="256" height="256">
<path d="M0 0 C0.98200407 -0.00445668 0.98200407 -0.00445668 1.9838466 -0.0090034 C4.17555897 -0.01766897 6.36721657 -0.01919679 8.5589447 -0.02069092 C10.13100297 -0.02532041 11.70306012 -0.03034525 13.27511597 -0.03573608 C17.54353902 -0.04884477 21.81194636 -0.05530142 26.0803864 -0.05974674 C28.74584811 -0.06267842 31.41130552 -0.06678329 34.07676506 -0.07125092 C42.41309974 -0.08491846 50.74942461 -0.09459017 59.08576971 -0.09845281 C68.71601763 -0.10293944 78.34612404 -0.1205184 87.97632891 -0.1494534 C95.41758678 -0.17103776 102.85880473 -0.18115526 110.30009359 -0.18249393 C114.74634234 -0.18354379 119.19245792 -0.18949063 123.63867378 -0.20731354 C127.81737702 -0.22373942 131.99584616 -0.22597663 136.17457008 -0.21717453 C137.71008682 -0.21640134 139.24561588 -0.22078375 140.78110123 -0.23063278 C142.8733113 -0.24326867 144.96468155 -0.23752235 147.05688477 -0.22705078 C148.22881913 -0.22851734 149.4007535 -0.2299839 150.60820103 -0.2314949 C153.46495056 0.14044189 153.46495056 0.14044189 155.34164524 1.20791245 C157.06033017 4.16473031 156.87763059 7.10357685 156.84590149 10.42840576 C156.85058146 11.17614242 156.85526143 11.92387908 156.86008322 12.69427443 C156.8720771 15.20710808 156.86255911 17.71940078 156.85313416 20.23223877 C156.85719791 22.03074971 156.86253869 23.82925815 156.86906433 25.62776184 C156.88276704 30.51818753 156.87742711 35.40842383 156.86792707 40.29885292 C156.86034576 45.41040187 156.86737183 50.52193432 156.87208557 55.63348389 C156.87754759 64.21835245 156.87033982 72.80314366 156.85606384 81.38800049 C156.83973649 91.32133353 156.84502468 101.25448186 156.86154306 111.18781042 C156.87514523 119.7076086 156.87708381 128.22735109 156.86922705 136.74715662 C156.86454354 141.83949977 156.86394426 146.93175602 156.87383652 152.02409363 C156.88248545 156.81099557 156.87652232 161.59765876 156.85915375 166.38453484 C156.85517779 168.1441858 156.85634181 169.90385676 156.86294174 171.66349983 C156.87110377 174.06009966 156.86090114 176.45592777 156.84590149 178.85247803 C156.85259365 179.55373668 156.85928582 180.25499534 156.86618078 180.97750425 C156.8311339 183.85170024 156.77730907 185.70702986 155.06882668 188.07762909 C152.07285777 190.06291591 148.95148326 189.31191072 145.46495056 189.14044189 C145.48589783 190.30092041 145.50684509 191.46139893 145.52842712 192.65704346 C145.60086863 196.96567427 145.64676527 201.27425135 145.68467712 205.58331299 C145.70478318 207.44766291 145.73207236 209.31194984 145.76670837 211.17608643 C145.81527177 213.85707137 145.83792894 216.53722213 145.85557556 219.21856689 C145.8762207 220.05099915 145.89686584 220.8834314 145.9181366 221.74108887 C145.91843872 222.52159607 145.91874084 223.30210327 145.91905212 224.10626221 C145.92793457 224.79021057 145.93681702 225.47415894 145.94596863 226.17883301 C145.22626507 229.11380985 143.78876369 230.25088055 141.46495056 232.14044189 C138.68652821 232.64101315 138.68652821 232.64101315 135.42584229 232.64164734 C134.18805527 232.65148148 132.95026825 232.66131561 131.67497253 232.67144775 C130.30589019 232.66207576 128.93681059 232.65229645 127.56773376 232.64215088 C126.12363153 232.64593467 124.67953291 232.65143521 123.23544312 232.65852356 C119.31355906 232.67249414 115.392113 232.66129464 111.47025323 232.64481235 C107.36115698 232.63095638 103.25208604 232.63742305 99.14297485 232.64094543 C92.23696345 232.64364865 85.33112571 232.63016766 78.42515564 232.60699463 C70.45560146 232.58043676 62.48633862 232.5786206 54.5167554 232.59038299 C46.83980881 232.60119058 39.16296698 232.59494698 31.48602867 232.58082771 C28.22507928 232.57508839 24.96420707 232.5751345 21.70325661 232.57989311 C17.85443244 232.58469119 14.00592401 232.57444506 10.15715981 232.55293846 C8.74995997 232.54740678 7.34272956 232.54687175 5.9355278 232.55189133 C-5.74989219 232.58832321 -14.78152871 231.29848502 -23.53504944 223.14044189 C-28.46080107 216.91843983 -29.83696988 211.07335852 -29.79574585 203.25961304 C-29.7995714 202.48425607 -29.80339694 201.7088991 -29.80733842 200.91004646 C-29.8176266 198.32157341 -29.81368425 195.73332391 -29.80970764 193.14483643 C-29.81405645 191.2850321 -29.81924016 189.42522956 -29.82519531 187.56542969 C-29.83857883 182.51993399 -29.83916466 177.47451323 -29.83663201 172.42900324 C-29.8355618 168.21433341 -29.84044699 163.99967871 -29.84523743 159.78501213 C-29.85633052 149.84016339 -29.85677122 139.89535242 -29.85072327 129.95050049 C-29.84468364 119.69740889 -29.8569947 109.44445453 -29.87829334 99.19138634 C-29.89591749 90.38271178 -29.90190938 81.57408087 -29.89865559 72.76538932 C-29.8968438 67.50692696 -29.8994686 62.24856249 -29.91337013 56.99011612 C-29.92595694 52.04394422 -29.92399623 47.09798599 -29.91095924 42.15181732 C-29.90859573 40.3394323 -29.91132007 38.52703219 -29.91958237 36.71466446 C-29.9300708 34.23460919 -29.92193269 31.75526813 -29.90927124 29.27523804 C-29.91664553 28.56335331 -29.92401981 27.85146858 -29.93161756 27.11801159 C-29.85179858 19.65204026 -27.44876082 13.26022103 -22.41395569 7.74591064 C-15.84939092 2.13668794 -8.44268823 0.02142276 0 0 Z " fill="#FBC65A" transform="translate(64.53504943847656,11.85955810546875)"/>
<path d="M0 0 C0.98200407 -0.00445668 0.98200407 -0.00445668 1.9838466 -0.0090034 C4.17555897 -0.01766897 6.36721657 -0.01919679 8.5589447 -0.02069092 C10.13100297 -0.02532041 11.70306012 -0.03034525 13.27511597 -0.03573608 C17.54353902 -0.04884477 21.81194636 -0.05530142 26.0803864 -0.05974674 C28.74584811 -0.06267842 31.41130552 -0.06678329 34.07676506 -0.07125092 C42.41309974 -0.08491846 50.74942461 -0.09459017 59.08576971 -0.09845281 C68.71601763 -0.10293944 78.34612404 -0.1205184 87.97632891 -0.1494534 C95.41758678 -0.17103776 102.85880473 -0.18115526 110.30009359 -0.18249393 C114.74634234 -0.18354379 119.19245792 -0.18949063 123.63867378 -0.20731354 C127.81737702 -0.22373942 131.99584616 -0.22597663 136.17457008 -0.21717453 C137.71008682 -0.21640134 139.24561588 -0.22078375 140.78110123 -0.23063278 C142.8733113 -0.24326867 144.96468155 -0.23752235 147.05688477 -0.22705078 C148.22881913 -0.22851734 149.4007535 -0.2299839 150.60820103 -0.2314949 C153.46495056 0.14044189 153.46495056 0.14044189 155.34164524 1.20791245 C157.06033017 4.16473031 156.87763059 7.10357685 156.84590149 10.42840576 C156.85058146 11.17614242 156.85526143 11.92387908 156.86008322 12.69427443 C156.8720771 15.20710808 156.86255911 17.71940078 156.85313416 20.23223877 C156.85719791 22.03074971 156.86253869 23.82925815 156.86906433 25.62776184 C156.88276704 30.51818753 156.87742711 35.40842383 156.86792707 40.29885292 C156.86034576 45.41040187 156.86737183 50.52193432 156.87208557 55.63348389 C156.87754759 64.21835245 156.87033982 72.80314366 156.85606384 81.38800049 C156.83973649 91.32133353 156.84502468 101.25448186 156.86154306 111.18781042 C156.87514523 119.7076086 156.87708381 128.22735109 156.86922705 136.74715662 C156.86454354 141.83949977 156.86394426 146.93175602 156.87383652 152.02409363 C156.88248545 156.81099557 156.87652232 161.59765876 156.85915375 166.38453484 C156.85517779 168.1441858 156.85634181 169.90385676 156.86294174 171.66349983 C156.87110377 174.06009966 156.86090114 176.45592777 156.84590149 178.85247803 C156.85259365 179.55373668 156.85928582 180.25499534 156.86618078 180.97750425 C156.8311339 183.85170024 156.77730907 185.70702986 155.06882668 188.07762909 C152.07285777 190.06291591 148.95148326 189.31191072 145.46495056 189.14044189 C145.48589783 190.30092041 145.50684509 191.46139893 145.52842712 192.65704346 C145.60086863 196.96567427 145.64676527 201.27425135 145.68467712 205.58331299 C145.70478318 207.44766291 145.73207236 209.31194984 145.76670837 211.17608643 C145.81527177 213.85707137 145.83792894 216.53722213 145.85557556 219.21856689 C145.8762207 220.05099915 145.89686584 220.8834314 145.9181366 221.74108887 C145.91843872 222.52159607 145.91874084 223.30210327 145.91905212 224.10626221 C145.92793457 224.79021057 145.93681702 225.47415894 145.94596863 226.17883301 C145.22626507 229.11380985 143.78876369 230.25088055 141.46495056 232.14044189 C138.68652821 232.64101315 138.68652821 232.64101315 135.42584229 232.64164734 C134.18805527 232.65148148 132.95026825 232.66131561 131.67497253 232.67144775 C130.30589019 232.66207576 128.93681059 232.65229645 127.56773376 232.64215088 C126.12363153 232.64593467 124.67953291 232.65143521 123.23544312 232.65852356 C119.31355906 232.67249414 115.392113 232.66129464 111.47025323 232.64481235 C107.36115698 232.63095638 103.25208604 232.63742305 99.14297485 232.64094543 C92.23696345 232.64364865 85.33112571 232.63016766 78.42515564 232.60699463 C70.45560146 232.58043676 62.48633862 232.5786206 54.5167554 232.59038299 C46.83980881 232.60119058 39.16296698 232.59494698 31.48602867 232.58082771 C28.22507928 232.57508839 24.96420707 232.5751345 21.70325661 232.57989311 C17.85443244 232.58469119 14.00592401 232.57444506 10.15715981 232.55293846 C8.74995997 232.54740678 7.34272956 232.54687175 5.9355278 232.55189133 C-5.74989219 232.58832321 -14.78152871 231.29848502 -23.53504944 223.14044189 C-28.46080107 216.91843983 -29.83696988 211.07335852 -29.79574585 203.25961304 C-29.7995714 202.48425607 -29.80339694 201.7088991 -29.80733842 200.91004646 C-29.8176266 198.32157341 -29.81368425 195.73332391 -29.80970764 193.14483643 C-29.81405645 191.2850321 -29.81924016 189.42522956 -29.82519531 187.56542969 C-29.83857883 182.51993399 -29.83916466 177.47451323 -29.83663201 172.42900324 C-29.8355618 168.21433341 -29.84044699 163.99967871 -29.84523743 159.78501213 C-29.85633052 149.84016339 -29.85677122 139.89535242 -29.85072327 129.95050049 C-29.84468364 119.69740889 -29.8569947 109.44445453 -29.87829334 99.19138634 C-29.89591749 90.38271178 -29.90190938 81.57408087 -29.89865559 72.76538932 C-29.8968438 67.50692696 -29.8994686 62.24856249 -29.91337013 56.99011612 C-29.92595694 52.04394422 -29.92399623 47.09798599 -29.91095924 42.15181732 C-29.90859573 40.3394323 -29.91132007 38.52703219 -29.91958237 36.71466446 C-29.9300708 34.23460919 -29.92193269 31.75526813 -29.90927124 29.27523804 C-29.91664553 28.56335331 -29.92401981 27.85146858 -29.93161756 27.11801159 C-29.85179858 19.65204026 -27.44876082 13.26022103 -22.41395569 7.74591064 C-15.84939092 2.13668794 -8.44268823 0.02142276 0 0 Z M15.46495056 9.14044189 C15.46495056 65.57044189 15.46495056 122.00044189 15.46495056 180.14044189 C59.02495056 180.14044189 102.58495056 180.14044189 147.46495056 180.14044189 C147.46495056 123.71044189 147.46495056 67.28044189 147.46495056 9.14044189 C103.90495056 9.14044189 60.34495056 9.14044189 15.46495056 9.14044189 Z " fill="#090603" transform="translate(64.53504943847656,11.85955810546875)"/>
<path d="M0 0 C7.30049067 4.2818907 12.4464795 10.16365725 15.14453125 18.2578125 C15.22631239 19.95798094 15.25202626 21.66117547 15.2421875 23.36328125 C15.23735352 24.83764648 15.23735352 24.83764648 15.23242188 26.34179688 C15.21985352 27.87803711 15.21985352 27.87803711 15.20703125 29.4453125 C15.20251953 30.48107422 15.19800781 31.51683594 15.19335938 32.58398438 C15.18157135 35.14198516 15.1651164 37.69986983 15.14453125 40.2578125 C16.03140625 40.4640625 16.91828125 40.6703125 17.83203125 40.8828125 C21.80888549 42.53358218 24.13360336 44.49269103 26.14453125 48.2578125 C26.85415601 51.81658937 26.82248969 55.29467037 26.7734375 58.9140625 C26.77584946 59.93455688 26.77826141 60.95505127 26.78074646 62.00646973 C26.77976954 64.15816138 26.76641315 66.30987865 26.74145508 68.46142578 C26.70714112 71.74729139 26.72080695 75.03046677 26.74023438 78.31640625 C26.7333356 80.41146974 26.72366294 82.5065263 26.7109375 84.6015625 C26.7183773 86.06897888 26.7183773 86.06897888 26.72596741 87.56604004 C26.62802468 93.26309918 26.12296881 96.85239777 22.14453125 101.2578125 C18.27279451 104.07219322 15.55043656 104.63868127 10.79711914 104.66186523 C9.53553482 104.67454941 8.2739505 104.68723358 6.97413635 104.70030212 C5.60515173 104.69825047 4.23616823 104.69526226 2.8671875 104.69140625 C1.4538091 104.69597091 0.04043292 104.70127734 -1.37294006 104.70729065 C-4.33099399 104.71621088 -7.28877778 104.71381145 -10.24682617 104.70385742 C-14.02758649 104.69237131 -17.8074123 104.71257788 -21.58804989 104.74177456 C-24.5058428 104.76016874 -27.4234131 104.75983776 -30.34124947 104.75413704 C-31.73463819 104.7539842 -33.12804237 104.75999744 -34.52137566 104.77242851 C-46.74520278 104.86612641 -46.74520278 104.86612641 -50.56860352 102.53930664 C-56.19816174 96.92297039 -56.33325742 92.40349009 -56.359375 84.734375 C-56.3693602 83.71483734 -56.3793454 82.69529968 -56.38963318 81.64486694 C-56.40479732 79.49147593 -56.4118595 77.33801467 -56.41137695 75.18457031 C-56.41793343 71.90050372 -56.47242107 68.6194688 -56.52929688 65.3359375 C-56.53810067 63.23959363 -56.54405373 61.14323546 -56.546875 59.046875 C-56.56843155 58.07062164 -56.5899881 57.09436829 -56.61219788 56.08853149 C-56.5536448 50.22485447 -55.68776632 46.73559006 -51.49913025 42.50350952 C-49.35128307 40.87570061 -47.53983555 40.33676446 -44.85546875 40.2578125 C-44.87641602 39.63326172 -44.89736328 39.00871094 -44.91894531 38.36523438 C-45.00282719 35.4962619 -45.05435386 32.62754842 -45.10546875 29.7578125 C-45.15574219 28.28441406 -45.15574219 28.28441406 -45.20703125 26.78125 C-45.32545835 17.89921713 -42.98200753 11.78366014 -36.85546875 5.2578125 C-34.1640625 3.2734375 -34.1640625 3.2734375 -31.29296875 1.5078125 C-30.34292969 0.91484375 -29.39289063 0.321875 -28.4140625 -0.2890625 C-20.23460453 -4.93449512 -8.31066849 -3.9417101 0 0 Z " fill="#100805" transform="translate(159.85546875,41.7421875)"/>
<path d="M0 0 C1.42958545 0.0011295 2.85917322 0.00049261 4.28875732 -0.00177002 C8.15412731 -0.0029141 12.01899722 0.020545 15.88425136 0.04852581 C19.92944578 0.07359088 23.97465262 0.07588548 28.01991272 0.08062744 C35.67318027 0.09304227 43.32621831 0.12584352 50.97938496 0.1660254 C59.69518938 0.21078972 68.41100496 0.23274184 77.12689579 0.25280714 C95.04967874 0.29457765 112.97214721 0.36791117 130.89477539 0.45410156 C130.89477539 12.00410156 130.89477539 23.55410156 130.89477539 35.45410156 C112.12728141 35.56705407 93.36006346 35.65912358 74.59231567 35.71316242 C65.87774469 35.73892267 57.1634002 35.77403132 48.44897461 35.83129883 C40.85173545 35.88120078 33.25466035 35.91340842 25.65726185 35.92454404 C21.63597613 35.93105138 17.61515968 35.94629933 13.59402466 35.98275185 C9.8051246 36.01681916 6.01688482 36.02713322 2.22784615 36.01963997 C0.84114551 36.02100977 -0.54557838 36.03087897 -1.93214607 36.05012894 C-9.73968037 36.15315885 -16.2118128 36.08537591 -22.10522461 30.45410156 C-25.93178589 25.39256379 -26.8119831 20.36342258 -26.55053711 14.07128906 C-25.59962807 8.48261311 -22.76572383 5.71190784 -18.37571716 2.38653564 C-12.70566955 -0.77750819 -6.30493376 -0.06983212 0 0 Z " fill="#FBC65A" transform="translate(70.105224609375,199.5458984375)"/>
<path d="M0 0 C0 56.43 0 112.86 0 171 C-5.28 171.33 -10.56 171.66 -16 172 C-19.98920054 173.5726656 -23.36942738 174.9154975 -27 177 C-27.1168313 155.47724954 -27.20498726 133.95455141 -27.25906086 112.43154812 C-27.28483619 102.43790012 -27.31997394 92.44444922 -27.37719727 82.45092773 C-27.42705271 73.73998048 -27.4592959 65.02917598 -27.47044247 56.31809002 C-27.47695761 51.70609144 -27.49225597 47.09450122 -27.52865028 42.48263359 C-27.56264366 38.13973509 -27.57304628 33.7974123 -27.56553841 29.45439339 C-27.56691147 27.86248265 -27.57682441 26.27055222 -27.59602737 24.67875671 C-27.7511127 11.15749497 -27.7511127 11.15749497 -24.64421082 6.65028381 C-16.45642161 -1.55631041 -13.11673032 0 0 0 Z " fill="#ED664C" transform="translate(71,21)"/>
<path d="M0 0 C1.85202026 -0.00945648 1.85202026 -0.00945648 3.74145508 -0.019104 C5.09456525 -0.01552432 6.44767412 -0.01142238 7.80078125 -0.00683594 C9.18318754 -0.00818268 10.56559338 -0.01012329 11.94799805 -0.01263428 C14.84656276 -0.01558511 17.74500428 -0.0112893 20.64355469 -0.00195312 C24.36288762 0.00944152 28.08193193 0.00288181 31.80125427 -0.00909805 C34.65623152 -0.01631782 37.5111401 -0.01402822 40.36611938 -0.00884247 C41.73768142 -0.00750629 43.10924964 -0.0091526 44.48080444 -0.01380157 C46.39605595 -0.01886842 48.31132926 -0.00977925 50.2265625 0 C51.31751221 0.00159119 52.40846191 0.00318237 53.5324707 0.00482178 C56.11328125 0.25878906 56.11328125 0.25878906 58.11328125 2.25878906 C58.37397766 4.11155701 58.37397766 4.11155701 58.38793945 6.38549805 C58.39747147 7.23655624 58.40700348 8.08761444 58.41682434 8.96446228 C58.41591293 9.88530106 58.41500153 10.80613983 58.4140625 11.75488281 C58.41834763 12.69936783 58.42263275 13.64385284 58.42704773 14.61695862 C58.43279711 16.61678261 58.43328683 18.61662752 58.42895508 20.61645508 C58.42579748 23.6805381 58.44923851 26.74365382 58.47460938 29.80761719 C58.4768825 31.74837117 58.47758581 33.68912776 58.4765625 35.62988281 C58.48577225 36.54869736 58.49498199 37.4675119 58.50447083 38.41416931 C58.49512764 39.69548485 58.49512764 39.69548485 58.4855957 41.00268555 C58.48622513 41.75388168 58.48685455 42.50507782 58.48750305 43.27903748 C57.98982879 45.91189158 57.32408382 46.74637407 55.11328125 48.25878906 C52.49487305 48.63973999 52.49487305 48.63973999 49.3125 48.64697266 C48.12116455 48.65642914 46.9298291 48.66588562 45.70239258 48.67562866 C43.77109497 48.66651962 43.77109497 48.66651962 41.80078125 48.65722656 C40.4670394 48.65924762 39.13329862 48.66215932 37.79956055 48.66592407 C35.00526399 48.67034602 32.21125527 48.66392096 29.41699219 48.64990234 C25.8355366 48.63281 22.25475543 48.64265195 18.67332458 48.66061974 C15.91950399 48.67146137 13.16584324 48.66800961 10.41201782 48.66023636 C8.4493974 48.65726235 6.48677077 48.66637198 4.52416992 48.67562866 C3.33283447 48.66617218 2.14149902 48.6567157 0.9140625 48.64697266 C-0.13612061 48.64458588 -1.18630371 48.6421991 -2.26831055 48.63973999 C-4.88671875 48.25878906 -4.88671875 48.25878906 -6.72599792 47.00053406 C-8.16659809 44.83881001 -8.26120148 43.59044454 -8.2590332 41.00268555 C-8.26526199 40.14847519 -8.27149078 39.29426483 -8.27790833 38.41416931 C-8.26869858 37.49535477 -8.25948883 36.57654022 -8.25 35.62988281 C-8.2504985 34.68444107 -8.25099701 33.73899933 -8.25151062 32.76490784 C-8.24917036 30.76683449 -8.2394447 28.76875818 -8.22290039 26.77075195 C-8.19928314 23.70464874 -8.20234285 20.63941337 -8.20898438 17.57324219 C-8.20340854 15.63378386 -8.19629926 13.6943292 -8.1875 11.75488281 C-8.18841141 10.83404404 -8.18932281 9.91320526 -8.19026184 8.96446228 C-8.18072983 8.11340408 -8.17119781 7.26234589 -8.16137695 6.38549805 C-8.15676956 5.6350975 -8.15216217 4.88469696 -8.14741516 4.11155701 C-7.48445671 -0.60008502 -3.86419595 0.00563606 0 0 Z " fill="#EB654B" transform="translate(119.88671875,89.7412109375)"/>
<path d="M0 0 C0.88733826 0.00404846 1.77467651 0.00809692 2.68890381 0.01226807 C4.08903717 0.00701111 4.08903717 0.00701111 5.51745605 0.00164795 C8.61374268 -0.00717989 11.70980222 -0.00131648 14.80609131 0.00543213 C16.95078577 0.00408578 19.09547993 0.00214551 21.24017334 -0.00036621 C25.73938904 -0.0033189 30.23852544 0.00098485 34.73773193 0.01031494 C40.51519075 0.02170952 46.29246377 0.01515083 52.06991577 0.00317001 C56.49987192 -0.00404466 60.92978376 -0.00176246 65.35974121 0.0034256 C67.49047874 0.00476318 69.62122024 0.00311059 71.75195312 -0.00153351 C74.72583732 -0.00659227 77.69941736 0.00110237 80.67327881 0.01226807 C81.56061707 0.0082196 82.44795532 0.00417114 83.36218262 0 C89.45256371 0.04252953 89.45256371 0.04252953 91.68109131 2.27105713 C91.93109131 4.77105713 91.93109131 4.77105713 91.68109131 7.27105713 C89.00983551 9.94231292 86.99448144 9.51674968 83.36218262 9.54211426 C82.47484436 9.5380658 81.5875061 9.53401733 80.67327881 9.52984619 C79.27314545 9.53510315 79.27314545 9.53510315 77.84472656 9.54046631 C74.74843994 9.54929415 71.6523804 9.54343074 68.55609131 9.53668213 C66.41139685 9.53802848 64.26670269 9.53996875 62.12200928 9.54248047 C57.62279358 9.54543316 53.12365718 9.54112941 48.62445068 9.53179932 C42.84699186 9.52040474 37.06971884 9.52696343 31.29226685 9.53894424 C26.8623107 9.54615891 22.43239886 9.54387672 18.00244141 9.53868866 C15.87170388 9.53735107 13.74096238 9.53900366 11.61022949 9.54364777 C8.6363453 9.54870653 5.66276525 9.54101189 2.68890381 9.52984619 C1.80156555 9.53389465 0.91422729 9.53794312 0 9.54211426 C-6.0903811 9.49958472 -6.0903811 9.49958472 -8.31890869 7.27105713 C-8.56890869 4.77105713 -8.56890869 4.77105713 -8.31890869 2.27105713 C-5.6476529 -0.40019867 -3.63229883 0.02536458 0 0 Z " fill="#1F190B" transform="translate(104.31890869140625,159.72894287109375)"/>
<path d="M0 0 C3.72727047 3.27548011 4.98806595 5.79920451 5.35546875 10.80078125 C5.33851574 12.2425165 5.29983067 13.68402642 5.25 15.125 C5.188125 17.661875 5.12625 20.19875 5.0625 22.8125 C-3.5175 22.8125 -12.0975 22.8125 -20.9375 22.8125 C-20.999375 20.275625 -21.06125 17.73875 -21.125 15.125 C-21.15231201 14.33520752 -21.17962402 13.54541504 -21.20776367 12.73168945 C-21.2611797 8.1890299 -20.71967865 5.41454772 -17.9375 1.8125 C-12.96224405 -2.55969462 -5.91286677 -2.39030784 0 0 Z " fill="#FAC55A" transform="translate(152.9375,58.1875)"/>
<path d="M0 0 C3.18637361 0.64073817 4.95955678 2.09960721 7.15625 4.43359375 C8.56625664 7.25360702 8.40173451 9.3036663 8.15625 12.43359375 C5.89154412 17.06594669 5.89154412 17.06594669 3.15625 18.43359375 C2.81698053 20.76607136 2.48384934 23.09944846 2.15625 25.43359375 C1.49625 26.09359375 0.83625 26.75359375 0.15625 27.43359375 C-4.39930556 26.87803819 -4.39930556 26.87803819 -5.84375 25.43359375 C-5.88467937 23.10061942 -5.88616723 20.7665415 -5.84375 18.43359375 C-6.4625 18.18609375 -7.08125 17.93859375 -7.71875 17.68359375 C-10.33373244 16.14536879 -10.91083246 15.31008951 -11.84375 12.43359375 C-12.39191346 8.12659515 -12.31832886 6.15311654 -9.90625 2.49609375 C-6.31239755 0.07574414 -4.24433491 -0.23343842 0 0 Z " fill="#0D0504" transform="translate(146.84375,105.56640625)"/>
<path d="M0 0 C31.68 0 63.36 0 96 0 C96 0.99 96 1.98 96 3 C64.32 3 32.64 3 0 3 C0 2.01 0 1.02 0 0 Z " fill="#000000" transform="translate(98,163)"/>
<path d="M0 0 C1.33572052 0.01078583 1.33572052 0.01078583 2.69842529 0.02178955 C3.63506012 0.0214975 4.57169495 0.02120544 5.53671265 0.02090454 C8.64263063 0.02230149 11.74831077 0.03787984 14.85418701 0.05352783 C17.00367095 0.05725666 19.15315658 0.06010425 21.30264282 0.06210327 C26.96786163 0.06974994 32.63297835 0.0894073 38.29815674 0.11151123 C44.07593403 0.13194742 49.85372777 0.14110022 55.63153076 0.15118408 C66.9740236 0.17265221 78.31644058 0.2068006 89.65887451 0.24884033 C89.65887451 1.23884033 89.65887451 2.22884033 89.65887451 3.24884033 C57.97887451 3.24884033 26.29887451 3.24884033 -6.34112549 3.24884033 C-6.34112549 4.89884033 -6.34112549 6.54884033 -6.34112549 8.24884033 C-7.00112549 7.91884033 -7.66112549 7.58884033 -8.34112549 7.24884033 C-8.46612549 4.87384033 -8.46612549 4.87384033 -8.34112549 2.24884033 C-5.66277931 -0.42950585 -3.64022797 0.01234804 0 0 Z " fill="#3D3015" transform="translate(104.34112548828125,159.75115966796875)"/>
<path d="M0 0 C0.33 0 0.66 0 1 0 C1 62.37 1 124.74 1 189 C0.67 189 0.34 189 0 189 C0 126.63 0 64.26 0 0 Z " fill="#000000" transform="translate(33,33)"/>
<path d="M0 0 C0.33 0 0.66 0 1 0 C1 60.39 1 120.78 1 183 C0.67 183 0.34 183 0 183 C0 122.61 0 62.22 0 0 Z " fill="#000000" transform="translate(222,15)"/>
<path d="M0 0 C3 1 3 1 3 1 Z " fill="#000000" transform="translate(54,244)"/>
<path d="" fill="#000000" transform="translate(0,0)"/>
<path d="M0 0 C3 1 3 1 3 1 Z " fill="#000000" transform="translate(54,11)"/>
<path d="M0 0 C2 1 2 1 2 1 Z " fill="#000000" transform="translate(206,244)"/>
<path d="M0 0 C2 1 2 1 2 1 Z " fill="#000000" transform="translate(51,243)"/>
<path d="M0 0 C2 1 2 1 2 1 Z " fill="#000000" transform="translate(49,242)"/>
<path d="" fill="#000000" transform="translate(0,0)"/>
<path d="M0 0 C2 1 2 1 2 1 Z " fill="#000000" transform="translate(47,241)"/>
<path d="M0 0 C2 1 2 1 2 1 Z " fill="#000000" transform="translate(44,239)"/>
<path d="" fill="#000000" transform="translate(0,0)"/>
<path d="" fill="#000000" transform="translate(0,0)"/>
<path d="" fill="#000000" transform="translate(0,0)"/>
<path d="" fill="#000000" transform="translate(0,0)"/>
<path d="M0 0 C2 1 2 1 2 1 Z " fill="#000000" transform="translate(44,16)"/>
<path d="M0 0 C2 1 2 1 2 1 Z " fill="#000000" transform="translate(47,14)"/>
<path d="M0 0 C2 1 2 1 2 1 Z " fill="#000000" transform="translate(49,13)"/>
<path d="M0 0 C2 1 2 1 2 1 Z " fill="#000000" transform="translate(51,12)"/>
<path d="" fill="#000000" transform="translate(0,0)"/>
<path d="" fill="#000000" transform="translate(0,0)"/>
<path d="" fill="#000000" transform="translate(0,0)"/>
<path d="" fill="#000000" transform="translate(0,0)"/>
<path d="" fill="#000000" transform="translate(0,0)"/>
<path d="" fill="#000000" transform="translate(0,0)"/>
<path d="" fill="#000000" transform="translate(0,0)"/>
<path d="" fill="#000000" transform="translate(0,0)"/>
<path d="" fill="#000000" transform="translate(0,0)"/>
<path d="" fill="#000000" transform="translate(0,0)"/>
<path d="" fill="#000000" transform="translate(0,0)"/>
<path d="" fill="#000000" transform="translate(0,0)"/>
<path d="" fill="#000000" transform="translate(0,0)"/>
<path d="" fill="#000000" transform="translate(0,0)"/>
<path d="" fill="#000000" transform="translate(0,0)"/>
<path d="" fill="#000000" transform="translate(0,0)"/>
<path d="" fill="#000000" transform="translate(0,0)"/>
<path d="" fill="#000000" transform="translate(0,0)"/>
<path d="" fill="#000000" transform="translate(0,0)"/>
<path d="" fill="#000000" transform="translate(0,0)"/>
<path d="" fill="#000000" transform="translate(0,0)"/>
<path d="" fill="#000000" transform="translate(0,0)"/>
<path d="" fill="#000000" transform="translate(0,0)"/>
<path d="" fill="#000000" transform="translate(0,0)"/>
</svg>
